<?xml version="1.0" encoding="iso-8859-1"?>
<!-- Generator: Adobe Illustrator 19.0.0, SVG Export Plug-In . SVG Version: 6.00 Build 0)  -->
<svg xmlns="http://www.w3.org/2000/svg" xmlns:xlink="http://www.w3.org/1999/xlink" version="1.1" id="Capa_1" x="0px" y="0px" viewBox="0 0 512 512" style="enable-background:new 0 0 512 512;" xml:space="preserve" width="512px" height="512px">
<g>
	<g>
		<path d="M256,0C114.844,0,0,114.844,0,256s114.844,256,256,256s256-114.844,256-256S397.156,0,256,0z M341.333,170.667    c11.76,0,21.333,9.573,21.333,21.333s-9.573,21.333-21.333,21.333C329.573,213.333,320,203.76,320,192    S329.573,170.667,341.333,170.667z M170.667,170.667c11.76,0,21.333,9.573,21.333,21.333s-9.573,21.333-21.333,21.333    c-11.76,0-21.333-9.573-21.333-21.333S158.906,170.667,170.667,170.667z M405.938,416.49    c-5.469,6.469-13.469,10.177-21.938,10.177s-16.469-3.708-21.938-10.177c-5.469-6.458-7.802-14.948-6.406-23.292l5.087-30.531    h-19.41c0,5.896-4.771,10.667-10.667,10.667c-5.896,0-10.667-4.771-10.667-10.667h-21.333c0,5.896-4.771,10.667-10.667,10.667    s-10.667-4.771-10.667-10.667H256c0,5.896-4.771,10.667-10.667,10.667c-5.896,0-10.667-4.771-10.667-10.667h-21.333    c0,5.896-4.771,10.667-10.667,10.667c-5.896,0-10.667-4.771-10.667-10.667h-21.333c0,5.896-4.771,10.667-10.667,10.667    s-10.667-4.771-10.667-10.667H128c0,5.896-4.771,10.667-10.667,10.667c-5.896,0-10.667-4.771-10.667-10.667v-21.333    c0-5.896,4.771-10.667,10.667-10.667c5.896,0,10.667,4.771,10.667,10.667h21.333c0-5.896,4.771-10.667,10.667-10.667    s10.667,4.771,10.667,10.667H192c0-5.896,4.771-10.667,10.667-10.667c5.896,0,10.667,4.771,10.667,10.667h21.333    c0-5.896,4.771-10.667,10.667-10.667c5.896,0,10.667,4.771,10.667,10.667h21.333c0-5.896,4.771-10.667,10.667-10.667    s10.667,4.771,10.667,10.667H320c0-5.896,4.771-10.667,10.667-10.667c5.896,0,10.667,4.771,10.667,10.667h53.333    c5.286,0,9.47,3.908,10.32,8.951l0.201-0.034l7.156,42.958C413.74,401.542,411.406,410.031,405.938,416.49z" fill="#D80027"/>
	</g>
</g>
<g>
</g>
<g>
</g>
<g>
</g>
<g>
</g>
<g>
</g>
<g>
</g>
<g>
</g>
<g>
</g>
<g>
</g>
<g>
</g>
<g>
</g>
<g>
</g>
<g>
</g>
<g>
</g>
<g>
</g>
</svg>
